<svg xmlns="http://www.w3.org/2000/svg" xmlns:xlink="http://www.w3.org/1999/xlink" width="107" zoomAndPan="magnify" viewBox="0 0 80.25 37.5" height="50" preserveAspectRatio="xMidYMid meet" version="1.0"><defs><g/><clipPath id="1f8a5c3fe4"><path d="M 1.199219 3.699219 L 18.882812 3.699219 L 18.882812 24.09375 L 1.199219 24.09375 Z M 1.199219 3.699219 " clip-rule="nonzero"/></clipPath><clipPath id="c1b495cecc"><path d="M 3.292969 23.929688 L 3.496094 23.929688 L 3.496094 24.097656 L 3.292969 24.097656 Z M 3.292969 23.929688 " clip-rule="nonzero"/></clipPath></defs><g clip-path="url(#1f8a5c3fe4)"><path fill="#424651" d="M 14.722656 9.3125 C 14.71875 9.859375 14.675781 10.433594 14.40625 10.949219 C 14.382812 10.996094 14.355469 11.046875 14.332031 11.089844 C 14.277344 11.179688 14.230469 11.265625 14.195312 11.355469 C 14.109375 11.570312 14.097656 11.800781 14.09375 12.058594 C 14.078125 12.628906 14.089844 13.238281 14.234375 13.8125 C 14.304688 14.09375 14.40625 14.351562 14.535156 14.585938 C 14.652344 14.542969 14.773438 14.5 14.90625 14.453125 L 15.851562 14.128906 C 15.671875 13.25 15.671875 12.53125 15.84375 11.867188 C 15.984375 11.339844 16.242188 10.808594 16.679688 10.160156 C 16.449219 10.019531 16.246094 9.847656 16.089844 9.710938 L 16.082031 9.703125 C 15.832031 9.484375 15.554688 9.234375 15.214844 9.242188 C 15.136719 9.246094 15.0625 9.261719 14.980469 9.277344 C 14.898438 9.292969 14.808594 9.3125 14.722656 9.3125 Z M 14.507812 14.726562 C 14.488281 14.726562 14.464844 14.714844 14.457031 14.695312 C 14.308594 14.4375 14.195312 14.152344 14.117188 13.84375 C 13.964844 13.253906 13.957031 12.636719 13.96875 12.058594 C 13.976562 11.789062 13.988281 11.546875 14.082031 11.308594 C 14.121094 11.210938 14.171875 11.121094 14.222656 11.03125 C 14.25 10.984375 14.273438 10.9375 14.300781 10.894531 C 14.566406 10.378906 14.601562 9.796875 14.597656 9.246094 C 14.597656 9.230469 14.605469 9.214844 14.617188 9.203125 C 14.632812 9.191406 14.648438 9.183594 14.664062 9.1875 C 14.757812 9.195312 14.855469 9.175781 14.957031 9.15625 C 15.039062 9.140625 15.125 9.121094 15.210938 9.121094 C 15.597656 9.109375 15.898438 9.375 16.164062 9.609375 L 16.171875 9.617188 C 16.335938 9.761719 16.554688 9.945312 16.800781 10.085938 C 16.816406 10.09375 16.824219 10.109375 16.828125 10.125 C 16.832031 10.140625 16.828125 10.160156 16.820312 10.175781 C 16.367188 10.835938 16.101562 11.367188 15.964844 11.898438 C 15.792969 12.554688 15.796875 13.273438 15.980469 14.15625 C 15.988281 14.1875 15.972656 14.21875 15.941406 14.230469 L 14.945312 14.570312 C 14.796875 14.621094 14.664062 14.667969 14.53125 14.722656 C 14.523438 14.722656 14.515625 14.726562 14.507812 14.726562 Z M 2.175781 19.164062 C 1.480469 19.886719 1.179688 20.882812 1.386719 21.777344 C 1.605469 22.71875 2.375 23.546875 3.402344 23.945312 C 5.210938 22.992188 6.992188 21.949219 8.699219 20.851562 L 8.765625 20.804688 C 9.148438 20.558594 9.539062 20.304688 9.96875 20.113281 C 10.699219 19.78125 11.519531 19.632812 12.308594 19.492188 C 12.574219 19.445312 12.847656 19.398438 13.113281 19.339844 C 13.667969 19.226562 14.128906 19.089844 14.523438 18.921875 C 15.046875 18.207031 15.570312 17.488281 16.09375 16.773438 C 16.613281 16.0625 17.207031 15.253906 17.28125 14.347656 C 17.316406 13.957031 17.25 13.5625 17.1875 13.175781 C 17.132812 12.828125 17.074219 12.46875 17.085938 12.109375 C 17.097656 11.738281 17.183594 11.367188 17.269531 11.007812 C 17.320312 10.800781 17.371094 10.589844 17.40625 10.375 C 17.410156 10.34375 17.441406 10.320312 17.476562 10.324219 C 17.675781 10.355469 17.867188 10.34375 18.042969 10.292969 C 18.289062 10.222656 18.496094 10.074219 18.683594 9.910156 C 18.164062 9.800781 17.425781 9.472656 16.664062 8.5625 L 16.625 8.511719 C 16.398438 8.238281 16.160156 7.957031 15.8125 7.882812 C 15.589844 7.839844 15.355469 7.886719 15.144531 7.933594 L 13.820312 8.207031 C 13.71875 8.226562 13.636719 8.246094 13.578125 8.292969 C 13.503906 8.351562 13.476562 8.449219 13.453125 8.5625 L 13.078125 10.222656 C 13.011719 10.511719 12.941406 10.835938 12.75 11.105469 C 12.652344 11.238281 12.527344 11.351562 12.382812 11.429688 C 12.367188 11.441406 12.347656 11.441406 12.328125 11.433594 C 12.3125 11.425781 12.300781 11.410156 12.292969 11.394531 L 11.519531 8.65625 C 11.226562 7.632812 10.898438 6.472656 10.066406 5.621094 C 9.5625 5.109375 8.878906 4.726562 8.144531 4.550781 C 7.878906 4.488281 7.59375 4.492188 7.398438 4.5625 C 7.375 4.570312 7.351562 4.5625 7.332031 4.546875 C 7.289062 4.5 7.246094 4.457031 7.203125 4.414062 C 6.925781 4.140625 6.617188 3.878906 6.238281 3.828125 C 6.117188 3.8125 5.984375 3.832031 5.863281 3.875 C 6.023438 4.195312 6.238281 4.5 6.449219 4.796875 C 6.5 4.863281 6.546875 4.933594 6.597656 5.003906 C 7.957031 6.949219 8.789062 9.1875 9 11.476562 C 9.046875 11.980469 9.078125 12.648438 8.929688 13.304688 C 8.921875 13.328125 8.902344 13.347656 8.875 13.351562 C 8.851562 13.351562 8.824219 13.339844 8.8125 13.316406 C 8.644531 12.972656 8.488281 12.613281 8.335938 12.265625 C 8.25 12.0625 8.15625 11.851562 8.0625 11.644531 C 7.664062 10.769531 7.128906 9.78125 6.199219 9.128906 C 5.5 8.636719 4.59375 8.421875 3.816406 8.554688 C 3.824219 8.570312 3.835938 8.585938 3.84375 8.601562 C 3.988281 8.804688 4.21875 8.957031 4.4375 9.101562 C 4.472656 9.125 4.503906 9.144531 4.535156 9.167969 C 5.933594 10.105469 7.011719 11.527344 7.566406 13.167969 C 8.058594 14.625 8.15625 16.296875 7.847656 18 C 7.847656 18.019531 7.835938 18.035156 7.820312 18.042969 C 6.96875 18.550781 5.988281 18.871094 4.980469 18.972656 C 4.613281 19.007812 4.234375 19.015625 3.871094 19.023438 C 3.480469 19.03125 3.078125 19.039062 2.683594 19.082031 C 2.507812 19.101562 2.335938 19.128906 2.175781 19.164062 Z M 3.40625 24.074219 C 3.398438 24.074219 3.390625 24.070312 3.382812 24.070312 C 2.308594 23.660156 1.496094 22.792969 1.265625 21.804688 C 1.046875 20.867188 1.367188 19.816406 2.101562 19.066406 C 2.109375 19.054688 2.121094 19.050781 2.136719 19.046875 C 2.304688 19.011719 2.484375 18.980469 2.671875 18.960938 C 3.070312 18.914062 3.476562 18.90625 3.867188 18.898438 C 4.230469 18.890625 4.605469 18.882812 4.96875 18.847656 C 5.945312 18.753906 6.902344 18.441406 7.734375 17.953125 C 8.03125 16.277344 7.933594 14.636719 7.449219 13.207031 C 6.902344 11.589844 5.84375 10.195312 4.46875 9.269531 C 4.433594 9.25 4.402344 9.226562 4.371094 9.207031 C 4.140625 9.054688 3.902344 8.894531 3.746094 8.671875 C 3.714844 8.628906 3.6875 8.582031 3.667969 8.53125 C 3.660156 8.515625 3.660156 8.496094 3.667969 8.480469 C 3.675781 8.464844 3.691406 8.453125 3.710938 8.449219 C 4.539062 8.277344 5.519531 8.5 6.269531 9.027344 C 7.226562 9.699219 7.769531 10.703125 8.175781 11.59375 C 8.269531 11.800781 8.359375 12.011719 8.449219 12.21875 C 8.578125 12.507812 8.707031 12.808594 8.84375 13.097656 C 8.949219 12.519531 8.917969 11.9375 8.875 11.488281 C 8.667969 9.21875 7.847656 7 6.496094 5.074219 C 6.449219 5.003906 6.398438 4.9375 6.347656 4.867188 C 6.125 4.550781 5.890625 4.21875 5.722656 3.871094 C 5.714844 3.855469 5.714844 3.839844 5.722656 3.824219 C 5.726562 3.808594 5.738281 3.796875 5.753906 3.789062 C 5.910156 3.714844 6.089844 3.6875 6.253906 3.707031 C 6.667969 3.761719 6.996094 4.039062 7.289062 4.328125 C 7.324219 4.363281 7.359375 4.398438 7.394531 4.433594 C 7.648438 4.355469 7.960938 4.378906 8.171875 4.429688 C 8.929688 4.613281 9.636719 5.007812 10.15625 5.535156 C 11.007812 6.40625 11.34375 7.585938 11.636719 8.621094 L 12.390625 11.28125 C 12.488281 11.214844 12.578125 11.128906 12.648438 11.035156 C 12.824219 10.785156 12.894531 10.484375 12.957031 10.195312 L 13.332031 8.535156 C 13.359375 8.40625 13.394531 8.28125 13.5 8.195312 C 13.589844 8.128906 13.703125 8.105469 13.792969 8.085938 L 15.117188 7.8125 C 15.339844 7.765625 15.589844 7.714844 15.835938 7.761719 C 16.230469 7.84375 16.488281 8.15625 16.71875 8.433594 L 16.757812 8.480469 C 17.558594 9.441406 18.328125 9.734375 18.832031 9.8125 C 18.855469 9.816406 18.875 9.832031 18.878906 9.855469 C 18.886719 9.878906 18.878906 9.902344 18.863281 9.917969 C 18.636719 10.121094 18.386719 10.324219 18.074219 10.410156 C 17.902344 10.460938 17.714844 10.476562 17.515625 10.457031 C 17.480469 10.652344 17.433594 10.847656 17.390625 11.039062 C 17.304688 11.390625 17.21875 11.753906 17.207031 12.113281 C 17.195312 12.460938 17.253906 12.8125 17.308594 13.15625 C 17.375 13.546875 17.441406 13.953125 17.40625 14.359375 C 17.324219 15.296875 16.722656 16.121094 16.195312 16.847656 C 15.667969 17.566406 15.140625 18.285156 14.613281 19.007812 C 14.605469 19.015625 14.597656 19.023438 14.585938 19.027344 C 14.179688 19.203125 13.707031 19.34375 13.140625 19.460938 C 12.871094 19.515625 12.597656 19.566406 12.332031 19.613281 C 11.546875 19.753906 10.738281 19.898438 10.019531 20.226562 C 9.597656 20.414062 9.210938 20.667969 8.832031 20.910156 L 8.765625 20.953125 C 7.050781 22.0625 5.257812 23.109375 3.433594 24.066406 C 3.425781 24.070312 3.417969 24.074219 3.40625 24.074219 " fill-opacity="1" fill-rule="nonzero"/></g><path fill="#424651" d="M 14.722656 9.3125 C 14.71875 9.859375 14.675781 10.433594 14.40625 10.949219 C 14.382812 10.996094 14.355469 11.046875 14.332031 11.089844 C 14.277344 11.179688 14.230469 11.265625 14.195312 11.355469 C 14.109375 11.570312 14.097656 11.800781 14.09375 12.058594 C 14.078125 12.628906 14.089844 13.238281 14.234375 13.8125 C 14.304688 14.09375 14.40625 14.351562 14.535156 14.585938 C 14.652344 14.542969 14.773438 14.5 14.90625 14.453125 L 15.851562 14.128906 C 15.671875 13.25 15.671875 12.53125 15.84375 11.867188 C 15.984375 11.339844 16.242188 10.808594 16.679688 10.160156 C 16.449219 10.019531 16.246094 9.847656 16.089844 9.710938 L 16.082031 9.703125 C 15.832031 9.484375 15.554688 9.234375 15.214844 9.242188 C 15.136719 9.246094 15.0625 9.261719 14.980469 9.277344 C 14.898438 9.292969 14.808594 9.3125 14.722656 9.3125 Z M 14.507812 14.726562 C 14.488281 14.726562 14.464844 14.714844 14.457031 14.695312 C 14.308594 14.4375 14.195312 14.152344 14.117188 13.84375 C 13.964844 13.253906 13.957031 12.636719 13.96875 12.058594 C 13.976562 11.789062 13.988281 11.546875 14.082031 11.308594 C 14.121094 11.210938 14.171875 11.121094 14.222656 11.03125 C 14.25 10.984375 14.273438 10.9375 14.300781 10.894531 C 14.566406 10.378906 14.601562 9.796875 14.597656 9.246094 C 14.597656 9.230469 14.605469 9.214844 14.617188 9.203125 C 14.632812 9.191406 14.648438 9.183594 14.664062 9.1875 C 14.757812 9.195312 14.855469 9.175781 14.957031 9.15625 C 15.039062 9.140625 15.125 9.121094 15.210938 9.121094 C 15.597656 9.109375 15.898438 9.375 16.164062 9.609375 L 16.171875 9.617188 C 16.335938 9.761719 16.554688 9.945312 16.800781 10.085938 C 16.816406 10.09375 16.824219 10.109375 16.828125 10.125 C 16.832031 10.140625 16.828125 10.160156 16.820312 10.175781 C 16.367188 10.835938 16.101562 11.367188 15.964844 11.898438 C 15.792969 12.554688 15.796875 13.273438 15.980469 14.15625 C 15.988281 14.1875 15.972656 14.21875 15.941406 14.230469 L 14.945312 14.570312 C 14.796875 14.621094 14.664062 14.667969 14.53125 14.722656 C 14.523438 14.722656 14.515625 14.726562 14.507812 14.726562 " fill-opacity="1" fill-rule="nonzero"/><path fill="#424651" d="M 17.464844 10.449219 C 17.464844 10.449219 17.460938 10.449219 17.457031 10.449219 C 17.421875 10.441406 17.398438 10.410156 17.40625 10.375 C 17.429688 10.230469 17.445312 10.09375 17.449219 9.964844 C 17.460938 9.75 17.40625 9.613281 17.289062 9.558594 C 17.269531 9.550781 17.253906 9.546875 17.230469 9.539062 C 17.199219 9.535156 17.175781 9.5 17.183594 9.46875 C 17.191406 9.433594 17.222656 9.414062 17.257812 9.421875 C 17.285156 9.425781 17.3125 9.433594 17.339844 9.449219 C 17.503906 9.523438 17.585938 9.703125 17.574219 9.972656 C 17.566406 10.105469 17.550781 10.246094 17.527344 10.398438 C 17.523438 10.425781 17.496094 10.449219 17.464844 10.449219 " fill-opacity="1" fill-rule="nonzero"/><path fill="#424651" d="M 16.769531 10.199219 C 16.757812 10.199219 16.746094 10.199219 16.734375 10.191406 C 16.707031 10.171875 16.699219 10.132812 16.71875 10.105469 C 16.875 9.875 17.039062 9.652344 17.195312 9.445312 C 17.214844 9.417969 17.253906 9.410156 17.28125 9.429688 C 17.308594 9.453125 17.3125 9.488281 17.292969 9.515625 C 17.140625 9.722656 16.976562 9.945312 16.820312 10.175781 C 16.808594 10.191406 16.789062 10.199219 16.769531 10.199219 " fill-opacity="1" fill-rule="nonzero"/><path fill="#424651" d="M 16.050781 14.78125 C 16.023438 14.78125 16 14.761719 15.992188 14.734375 C 15.941406 14.539062 15.898438 14.359375 15.863281 14.183594 C 15.855469 14.148438 15.875 14.117188 15.910156 14.109375 C 15.941406 14.101562 15.976562 14.125 15.980469 14.15625 C 16.019531 14.332031 16.0625 14.511719 16.113281 14.703125 C 16.121094 14.734375 16.101562 14.769531 16.066406 14.777344 C 16.0625 14.777344 16.058594 14.78125 16.050781 14.78125 " fill-opacity="1" fill-rule="nonzero"/><path fill="#424651" d="M 14.660156 9.308594 C 14.65625 9.308594 14.65625 9.308594 14.652344 9.308594 C 14.628906 9.304688 14.605469 9.300781 14.578125 9.296875 C 14.363281 9.246094 14.234375 9.066406 14.15625 8.933594 C 14.140625 8.902344 14.148438 8.867188 14.179688 8.847656 C 14.207031 8.832031 14.246094 8.839844 14.265625 8.871094 C 14.371094 9.050781 14.476562 9.144531 14.609375 9.175781 C 14.628906 9.179688 14.644531 9.183594 14.664062 9.1875 C 14.699219 9.191406 14.722656 9.21875 14.722656 9.253906 C 14.71875 9.285156 14.691406 9.308594 14.660156 9.308594 " fill-opacity="1" fill-rule="nonzero"/><path fill="#424651" d="M 12.777344 16.40625 C 12.769531 16.40625 12.757812 16.402344 12.75 16.398438 C 12.71875 16.382812 12.710938 16.34375 12.726562 16.316406 C 12.882812 16.023438 13.070312 15.746094 13.285156 15.492188 C 13.539062 15.1875 13.785156 14.972656 14.050781 14.8125 C 14.175781 14.742188 14.3125 14.675781 14.484375 14.605469 C 14.515625 14.59375 14.554688 14.609375 14.566406 14.640625 C 14.578125 14.671875 14.5625 14.707031 14.53125 14.722656 C 14.367188 14.789062 14.234375 14.851562 14.113281 14.921875 C 13.859375 15.070312 13.625 15.277344 13.378906 15.574219 C 13.167969 15.820312 12.988281 16.089844 12.832031 16.375 C 12.824219 16.394531 12.800781 16.40625 12.777344 16.40625 " fill-opacity="1" fill-rule="nonzero"/><path fill="#424651" d="M 12.464844 11.832031 C 12.4375 11.832031 12.414062 11.816406 12.40625 11.789062 L 12.292969 11.394531 C 12.285156 11.359375 12.304688 11.328125 12.335938 11.316406 C 12.367188 11.308594 12.402344 11.328125 12.414062 11.359375 L 12.523438 11.753906 C 12.535156 11.789062 12.515625 11.820312 12.480469 11.832031 C 12.476562 11.832031 12.46875 11.832031 12.464844 11.832031 " fill-opacity="1" fill-rule="nonzero"/><path fill="#424651" d="M 10.953125 16.84375 C 10.925781 16.84375 10.898438 16.824219 10.894531 16.792969 C 10.820312 16.417969 10.699219 16.085938 10.523438 15.78125 C 10.351562 15.480469 10.117188 15.203125 9.890625 14.933594 C 9.757812 14.78125 9.625 14.621094 9.503906 14.457031 C 9.257812 14.132812 9.039062 13.769531 8.8125 13.316406 C 8.800781 13.285156 8.8125 13.25 8.84375 13.234375 C 8.871094 13.21875 8.910156 13.230469 8.925781 13.261719 C 9.148438 13.707031 9.359375 14.066406 9.601562 14.382812 C 9.722656 14.542969 9.855469 14.703125 9.984375 14.855469 C 10.214844 15.128906 10.453125 15.410156 10.632812 15.722656 C 10.8125 16.039062 10.941406 16.382812 11.015625 16.769531 C 11.023438 16.804688 11 16.835938 10.964844 16.839844 C 10.960938 16.84375 10.957031 16.84375 10.953125 16.84375 " fill-opacity="1" fill-rule="nonzero"/><path fill="#424651" d="M 7.75 20.382812 C 7.726562 20.382812 7.703125 20.367188 7.695312 20.34375 C 7.40625 19.691406 7.546875 18.9375 7.683594 18.210938 C 7.699219 18.140625 7.710938 18.070312 7.722656 18 L 7.726562 17.980469 C 7.734375 17.945312 7.765625 17.921875 7.800781 17.929688 C 7.835938 17.9375 7.855469 17.96875 7.847656 18.003906 L 7.84375 18.023438 C 7.832031 18.09375 7.820312 18.164062 7.804688 18.234375 C 7.671875 18.941406 7.535156 19.675781 7.808594 20.296875 C 7.820312 20.328125 7.808594 20.363281 7.777344 20.375 C 7.769531 20.378906 7.757812 20.382812 7.75 20.382812 " fill-opacity="1" fill-rule="nonzero"/><path fill="#424651" d="M 10.894531 12.113281 C 10.863281 12.113281 10.835938 12.089844 10.832031 12.058594 C 10.617188 9.289062 9.375 6.621094 7.332031 4.546875 C 7.308594 4.523438 7.308594 4.484375 7.335938 4.457031 C 7.359375 4.433594 7.398438 4.433594 7.421875 4.460938 C 9.484375 6.554688 10.738281 9.25 10.957031 12.046875 C 10.957031 12.082031 10.933594 12.109375 10.898438 12.113281 C 10.898438 12.113281 10.894531 12.113281 10.894531 12.113281 " fill-opacity="1" fill-rule="nonzero"/><g clip-path="url(#c1b495cecc)"><path fill="#424651" d="M 3.355469 24.097656 C 3.335938 24.097656 3.3125 24.085938 3.300781 24.066406 C 3.285156 24.035156 3.296875 24 3.328125 23.984375 L 3.332031 23.980469 C 3.347656 23.972656 3.363281 23.964844 3.375 23.957031 C 3.40625 23.941406 3.445312 23.953125 3.460938 23.980469 C 3.476562 24.011719 3.464844 24.046875 3.4375 24.066406 C 3.421875 24.074219 3.40625 24.082031 3.390625 24.089844 L 3.386719 24.089844 C 3.375 24.097656 3.367188 24.097656 3.355469 24.097656 " fill-opacity="1" fill-rule="nonzero"/></g><g fill="#000000" fill-opacity="1"><g transform="translate(14.593964, 27.377506)"><g><path d="M 10.1875 -3.3125 L 15 -14.25 L 19.140625 -14.25 L 19.140625 -13.546875 C 18.742188 -13.535156 18.425781 -13.488281 18.1875 -13.40625 C 17.945312 -13.320312 17.757812 -13.175781 17.625 -12.96875 C 17.5 -12.769531 17.414062 -12.488281 17.375 -12.125 C 17.332031 -11.769531 17.3125 -11.3125 17.3125 -10.75 L 17.3125 -3.5 C 17.3125 -2.882812 17.332031 -2.394531 17.375 -2.03125 C 17.425781 -1.675781 17.523438 -1.398438 17.671875 -1.203125 C 17.816406 -1.003906 18.019531 -0.875 18.28125 -0.8125 C 18.550781 -0.75 18.898438 -0.710938 19.328125 -0.703125 L 19.328125 0 L 13.328125 0 L 13.328125 -0.703125 C 13.765625 -0.710938 14.113281 -0.75 14.375 -0.8125 C 14.644531 -0.882812 14.851562 -1.015625 15 -1.203125 C 15.144531 -1.390625 15.242188 -1.648438 15.296875 -1.984375 C 15.347656 -2.328125 15.375 -2.789062 15.375 -3.375 L 15.375 -11.96875 L 15.1875 -11.96875 L 9.78125 0.1875 L 9.375 0.1875 L 4.0625 -11.96875 L 3.984375 -11.96875 L 3.984375 -3.5 C 3.984375 -2.882812 4.003906 -2.394531 4.046875 -2.03125 C 4.097656 -1.675781 4.195312 -1.398438 4.34375 -1.203125 C 4.488281 -1.003906 4.691406 -0.875 4.953125 -0.8125 C 5.210938 -0.75 5.5625 -0.710938 6 -0.703125 L 6 0 L 0.828125 0 L 0.828125 -0.703125 C 1.265625 -0.710938 1.613281 -0.75 1.875 -0.8125 C 2.144531 -0.882812 2.351562 -1.015625 2.5 -1.203125 C 2.644531 -1.390625 2.742188 -1.648438 2.796875 -1.984375 C 2.847656 -2.328125 2.875 -2.789062 2.875 -3.375 L 2.875 -10.890625 C 2.875 -11.410156 2.847656 -11.835938 2.796875 -12.171875 C 2.753906 -12.515625 2.664062 -12.785156 2.53125 -12.984375 C 2.40625 -13.179688 2.21875 -13.316406 1.96875 -13.390625 C 1.726562 -13.472656 1.410156 -13.523438 1.015625 -13.546875 L 1.015625 -14.25 L 5.4375 -14.25 L 10.109375 -3.3125 Z M 10.1875 -3.3125 "/></g></g></g><g fill="#000000" fill-opacity="1"><g transform="translate(34.783054, 27.377506)"><g><path d="M 6.46875 -5.484375 C 5.757812 -5.210938 5.160156 -4.945312 4.671875 -4.6875 C 4.179688 -4.425781 3.789062 -4.164062 3.5 -3.90625 C 3.207031 -3.644531 2.992188 -3.382812 2.859375 -3.125 C 2.734375 -2.863281 2.671875 -2.597656 2.671875 -2.328125 C 2.671875 -1.921875 2.804688 -1.585938 3.078125 -1.328125 C 3.347656 -1.066406 3.703125 -0.9375 4.140625 -0.9375 C 4.460938 -0.9375 4.765625 -1.015625 5.046875 -1.171875 C 5.328125 -1.335938 5.570312 -1.5625 5.78125 -1.84375 C 5.988281 -2.125 6.15625 -2.453125 6.28125 -2.828125 C 6.40625 -3.203125 6.46875 -3.597656 6.46875 -4.015625 Z M 6.46875 -6.28125 L 6.46875 -7.03125 C 6.46875 -8.539062 5.820312 -9.296875 4.53125 -9.296875 C 4.320312 -9.296875 4.144531 -9.273438 4 -9.234375 C 3.851562 -9.203125 3.726562 -9.140625 3.625 -9.046875 C 3.53125 -8.960938 3.441406 -8.835938 3.359375 -8.671875 C 3.273438 -8.515625 3.195312 -8.320312 3.125 -8.09375 C 2.988281 -7.726562 2.851562 -7.488281 2.71875 -7.375 C 2.59375 -7.257812 2.410156 -7.203125 2.171875 -7.203125 C 1.546875 -7.203125 1.234375 -7.507812 1.234375 -8.125 C 1.234375 -8.71875 1.546875 -9.175781 2.171875 -9.5 C 2.804688 -9.832031 3.707031 -10 4.875 -10 C 6.101562 -10 6.976562 -9.78125 7.5 -9.34375 C 8.019531 -8.90625 8.28125 -8.160156 8.28125 -7.109375 L 8.28125 -2.96875 C 8.28125 -1.5625 8.554688 -0.859375 9.109375 -0.859375 C 9.285156 -0.859375 9.453125 -0.878906 9.609375 -0.921875 C 9.765625 -0.960938 9.898438 -1.078125 10.015625 -1.265625 L 10.28125 -0.8125 C 10.125 -0.53125 9.847656 -0.289062 9.453125 -0.09375 C 9.066406 0.09375 8.65625 0.1875 8.21875 0.1875 C 7.675781 0.1875 7.269531 0.015625 7 -0.328125 C 6.738281 -0.679688 6.609375 -1.171875 6.609375 -1.796875 L 6.515625 -1.796875 C 6.191406 -1.191406 5.742188 -0.710938 5.171875 -0.359375 C 4.609375 -0.00390625 3.984375 0.171875 3.296875 0.171875 C 2.515625 0.171875 1.898438 -0.0234375 1.453125 -0.421875 C 1.015625 -0.816406 0.796875 -1.347656 0.796875 -2.015625 C 0.796875 -2.316406 0.847656 -2.601562 0.953125 -2.875 C 1.054688 -3.144531 1.222656 -3.398438 1.453125 -3.640625 C 1.691406 -3.890625 2.003906 -4.132812 2.390625 -4.375 C 2.773438 -4.613281 3.242188 -4.859375 3.796875 -5.109375 Z M 6.46875 -6.28125 "/></g></g></g><g fill="#000000" fill-opacity="1"><g transform="translate(45.044299, 27.377506)"><g><path d="M 5.078125 -3.984375 C 5.585938 -3.984375 5.988281 -4.21875 6.28125 -4.6875 C 6.570312 -5.15625 6.71875 -5.816406 6.71875 -6.671875 C 6.71875 -7.503906 6.570312 -8.148438 6.28125 -8.609375 C 5.988281 -9.078125 5.582031 -9.3125 5.0625 -9.3125 C 4.53125 -9.3125 4.101562 -9.078125 3.78125 -8.609375 C 3.46875 -8.140625 3.3125 -7.5 3.3125 -6.6875 C 3.3125 -5.875 3.472656 -5.21875 3.796875 -4.71875 C 4.117188 -4.226562 4.546875 -3.984375 5.078125 -3.984375 Z M 4.0625 -1.8125 C 4.351562 -1.789062 4.617188 -1.765625 4.859375 -1.734375 C 5.109375 -1.710938 5.351562 -1.6875 5.59375 -1.65625 C 5.84375 -1.632812 6.085938 -1.601562 6.328125 -1.5625 C 6.566406 -1.53125 6.828125 -1.5 7.109375 -1.46875 C 7.992188 -1.332031 8.703125 -0.988281 9.234375 -0.4375 C 9.773438 0.113281 10.046875 0.800781 10.046875 1.625 C 10.046875 2.664062 9.632812 3.457031 8.8125 4 C 8 4.539062 6.816406 4.8125 5.265625 4.8125 C 4.566406 4.8125 3.929688 4.75 3.359375 4.625 C 2.785156 4.5 2.296875 4.320312 1.890625 4.09375 C 1.484375 3.875 1.164062 3.601562 0.9375 3.28125 C 0.707031 2.957031 0.59375 2.601562 0.59375 2.21875 C 0.59375 1.957031 0.632812 1.71875 0.71875 1.5 C 0.8125 1.28125 0.929688 1.085938 1.078125 0.921875 C 1.222656 0.753906 1.394531 0.617188 1.59375 0.515625 C 1.800781 0.421875 2.015625 0.375 2.234375 0.375 C 2.660156 0.375 3.039062 0.503906 3.375 0.765625 C 3.039062 0.835938 2.765625 1.015625 2.546875 1.296875 C 2.335938 1.585938 2.234375 1.921875 2.234375 2.296875 C 2.234375 2.835938 2.5 3.253906 3.03125 3.546875 C 3.570312 3.847656 4.335938 4 5.328125 4 C 7.441406 4 8.5 3.351562 8.5 2.0625 C 8.5 1.5625 8.332031 1.144531 8 0.8125 C 7.664062 0.488281 7.269531 0.296875 6.8125 0.234375 C 6.519531 0.203125 6.210938 0.164062 5.890625 0.125 C 5.578125 0.0820312 5.269531 0.0390625 4.96875 0 C 4.664062 -0.0390625 4.382812 -0.0703125 4.125 -0.09375 C 3.863281 -0.113281 3.65625 -0.140625 3.5 -0.171875 C 2.8125 -0.242188 2.285156 -0.425781 1.921875 -0.71875 C 1.566406 -1.019531 1.390625 -1.425781 1.390625 -1.9375 C 1.390625 -2.375 1.566406 -2.757812 1.921875 -3.09375 C 2.285156 -3.425781 2.738281 -3.632812 3.28125 -3.71875 L 3.28125 -3.796875 C 3.007812 -3.910156 2.753906 -4.066406 2.515625 -4.265625 C 2.285156 -4.472656 2.085938 -4.703125 1.921875 -4.953125 C 1.753906 -5.210938 1.617188 -5.492188 1.515625 -5.796875 C 1.421875 -6.109375 1.375 -6.421875 1.375 -6.734375 C 1.375 -7.203125 1.460938 -7.632812 1.640625 -8.03125 C 1.816406 -8.425781 2.066406 -8.769531 2.390625 -9.0625 C 2.722656 -9.351562 3.109375 -9.582031 3.546875 -9.75 C 3.992188 -9.914062 4.484375 -10 5.015625 -10 C 5.554688 -10 6.066406 -9.914062 6.546875 -9.75 C 7.035156 -9.582031 7.453125 -9.335938 7.796875 -9.015625 C 8.210938 -9.359375 8.582031 -9.609375 8.90625 -9.765625 C 9.226562 -9.921875 9.53125 -10 9.8125 -10 C 10.257812 -10 10.613281 -9.894531 10.875 -9.6875 C 11.144531 -9.488281 11.28125 -9.21875 11.28125 -8.875 C 11.28125 -8.65625 11.207031 -8.484375 11.0625 -8.359375 C 10.914062 -8.242188 10.738281 -8.1875 10.53125 -8.1875 C 10.363281 -8.1875 10.222656 -8.21875 10.109375 -8.28125 C 9.992188 -8.34375 9.890625 -8.40625 9.796875 -8.46875 C 9.710938 -8.539062 9.617188 -8.609375 9.515625 -8.671875 C 9.421875 -8.734375 9.296875 -8.765625 9.140625 -8.765625 C 8.847656 -8.765625 8.546875 -8.65625 8.234375 -8.4375 C 8.535156 -7.988281 8.6875 -7.414062 8.6875 -6.71875 C 8.6875 -5.664062 8.359375 -4.835938 7.703125 -4.234375 C 7.046875 -3.640625 6.066406 -3.296875 4.765625 -3.203125 C 4.003906 -3.140625 3.472656 -3.054688 3.171875 -2.953125 C 2.878906 -2.859375 2.734375 -2.679688 2.734375 -2.421875 C 2.734375 -2.222656 2.84375 -2.078125 3.0625 -1.984375 C 3.289062 -1.890625 3.625 -1.832031 4.0625 -1.8125 Z M 4.0625 -1.8125 "/></g></g></g><g fill="#000000" fill-opacity="1"><g transform="translate(56.139036, 27.377506)"><g><path d="M 4.21875 -2.9375 C 4.21875 -2.457031 4.238281 -2.070312 4.28125 -1.78125 C 4.320312 -1.5 4.40625 -1.273438 4.53125 -1.109375 C 4.65625 -0.941406 4.828125 -0.828125 5.046875 -0.765625 C 5.273438 -0.703125 5.570312 -0.660156 5.9375 -0.640625 L 5.9375 0 L 0.625 0 L 0.625 -0.640625 C 1 -0.660156 1.300781 -0.703125 1.53125 -0.765625 C 1.769531 -0.835938 1.953125 -0.945312 2.078125 -1.09375 C 2.210938 -1.25 2.300781 -1.46875 2.34375 -1.75 C 2.382812 -2.03125 2.40625 -2.382812 2.40625 -2.8125 L 2.40625 -5.1875 C 2.40625 -5.90625 2.394531 -6.492188 2.375 -6.953125 C 2.351562 -7.410156 2.320312 -7.726562 2.28125 -7.90625 C 2.21875 -8.1875 2.070312 -8.378906 1.84375 -8.484375 C 1.625 -8.585938 1.207031 -8.640625 0.59375 -8.640625 L 0.59375 -9.296875 L 4.21875 -10 Z M 2.09375 -13.75 C 2.09375 -14.070312 2.203125 -14.34375 2.421875 -14.5625 C 2.648438 -14.789062 2.921875 -14.90625 3.234375 -14.90625 C 3.554688 -14.90625 3.828125 -14.789062 4.046875 -14.5625 C 4.273438 -14.34375 4.390625 -14.070312 4.390625 -13.75 C 4.390625 -13.4375 4.273438 -13.164062 4.046875 -12.9375 C 3.828125 -12.71875 3.554688 -12.609375 3.234375 -12.609375 C 2.921875 -12.609375 2.648438 -12.71875 2.421875 -12.9375 C 2.203125 -13.164062 2.09375 -13.4375 2.09375 -13.75 Z M 2.09375 -13.75 "/></g></g></g><g fill="#000000" fill-opacity="1"><g transform="translate(62.455071, 27.377506)"><g><path d="M 9.375 -1.53125 C 8.925781 -0.988281 8.347656 -0.566406 7.640625 -0.265625 C 6.941406 0.0351562 6.1875 0.1875 5.375 0.1875 C 4.71875 0.1875 4.113281 0.0664062 3.5625 -0.171875 C 3.007812 -0.410156 2.535156 -0.75 2.140625 -1.1875 C 1.753906 -1.625 1.453125 -2.148438 1.234375 -2.765625 C 1.015625 -3.390625 0.90625 -4.078125 0.90625 -4.828125 C 0.90625 -5.617188 1.023438 -6.332031 1.265625 -6.96875 C 1.515625 -7.601562 1.863281 -8.144531 2.3125 -8.59375 C 2.769531 -9.050781 3.316406 -9.398438 3.953125 -9.640625 C 4.585938 -9.878906 5.285156 -10 6.046875 -10 C 6.535156 -10 6.976562 -9.957031 7.375 -9.875 C 7.769531 -9.789062 8.109375 -9.675781 8.390625 -9.53125 C 8.679688 -9.394531 8.90625 -9.222656 9.0625 -9.015625 C 9.226562 -8.816406 9.3125 -8.601562 9.3125 -8.375 C 9.3125 -8.125 9.226562 -7.929688 9.0625 -7.796875 C 8.90625 -7.660156 8.6875 -7.59375 8.40625 -7.59375 C 8.1875 -7.59375 8 -7.640625 7.84375 -7.734375 C 7.695312 -7.828125 7.507812 -8.03125 7.28125 -8.34375 C 7.03125 -8.632812 6.789062 -8.835938 6.5625 -8.953125 C 6.332031 -9.066406 6.039062 -9.125 5.6875 -9.125 C 4.8125 -9.125 4.144531 -8.785156 3.6875 -8.109375 C 3.238281 -7.429688 3.015625 -6.429688 3.015625 -5.109375 C 3.015625 -3.691406 3.265625 -2.613281 3.765625 -1.875 C 4.265625 -1.144531 5 -0.78125 5.96875 -0.78125 C 6.476562 -0.78125 6.960938 -0.878906 7.421875 -1.078125 C 7.878906 -1.285156 8.34375 -1.617188 8.8125 -2.078125 Z M 9.375 -1.53125 "/></g></g></g><g fill="#000000" fill-opacity="1"><g transform="translate(56.035622, 34.052819)"><g><path d="M 1.5 0.0625 C 1.300781 0.0625 1.117188 0.0546875 0.953125 0.046875 C 0.796875 0.0351562 0.578125 0.0195312 0.296875 0 L 0.296875 -3.15625 L 1.875 -3.15625 C 2.101562 -3.15625 2.304688 -3.125 2.484375 -3.0625 C 2.660156 -3 2.800781 -2.910156 2.90625 -2.796875 C 3.007812 -2.679688 3.0625 -2.546875 3.0625 -2.390625 C 3.0625 -2.203125 3.019531 -2.050781 2.9375 -1.9375 C 2.851562 -1.832031 2.722656 -1.757812 2.546875 -1.71875 C 2.984375 -1.644531 3.203125 -1.390625 3.203125 -0.953125 C 3.203125 -0.648438 3.0625 -0.40625 2.78125 -0.21875 C 2.5 -0.03125 2.070312 0.0625 1.5 0.0625 Z M 1.6875 -1.90625 C 1.800781 -1.90625 1.894531 -1.929688 1.96875 -1.984375 C 2.050781 -2.046875 2.09375 -2.125 2.09375 -2.21875 C 2.09375 -2.4375 1.957031 -2.546875 1.6875 -2.546875 L 1.328125 -2.546875 L 1.328125 -1.90625 Z M 1.671875 -0.671875 C 1.835938 -0.671875 1.960938 -0.703125 2.046875 -0.765625 C 2.140625 -0.828125 2.1875 -0.914062 2.1875 -1.03125 C 2.1875 -1.144531 2.144531 -1.234375 2.0625 -1.296875 C 1.976562 -1.367188 1.863281 -1.40625 1.71875 -1.40625 L 1.3125 -1.40625 L 1.3125 -0.6875 C 1.457031 -0.675781 1.578125 -0.671875 1.671875 -0.671875 Z M 1.671875 -0.671875 "/></g></g></g><g fill="#000000" fill-opacity="1"><g transform="translate(59.348323, 34.052819)"><g><path d="M 1.25 0.03125 C 1.050781 0.03125 0.863281 -0.0195312 0.6875 -0.125 C 0.507812 -0.226562 0.367188 -0.367188 0.265625 -0.546875 C 0.160156 -0.734375 0.109375 -0.9375 0.109375 -1.15625 C 0.109375 -1.382812 0.160156 -1.585938 0.265625 -1.765625 C 0.367188 -1.941406 0.507812 -2.078125 0.6875 -2.171875 C 0.863281 -2.273438 1.050781 -2.328125 1.25 -2.328125 C 1.40625 -2.328125 1.550781 -2.28125 1.6875 -2.1875 C 1.820312 -2.101562 1.925781 -1.972656 2 -1.796875 L 2 -2.328125 L 2.96875 -2.328125 L 2.96875 0 L 2 0 L 2 -0.421875 C 1.84375 -0.117188 1.59375 0.03125 1.25 0.03125 Z M 1.546875 -0.6875 C 1.671875 -0.6875 1.773438 -0.726562 1.859375 -0.8125 C 1.941406 -0.90625 1.988281 -1.007812 2 -1.125 L 2 -1.171875 C 1.988281 -1.285156 1.9375 -1.382812 1.84375 -1.46875 C 1.757812 -1.5625 1.660156 -1.609375 1.546875 -1.609375 C 1.410156 -1.609375 1.296875 -1.5625 1.203125 -1.46875 C 1.117188 -1.382812 1.078125 -1.28125 1.078125 -1.15625 C 1.078125 -1.019531 1.125 -0.90625 1.21875 -0.8125 C 1.3125 -0.726562 1.421875 -0.6875 1.546875 -0.6875 Z M 1.328125 -2.6875 C 1.316406 -2.738281 1.3125 -2.796875 1.3125 -2.859375 C 1.3125 -2.921875 1.328125 -2.972656 1.359375 -3.015625 C 1.390625 -3.066406 1.429688 -3.113281 1.484375 -3.15625 C 1.535156 -3.195312 1.570312 -3.226562 1.59375 -3.25 C 1.613281 -3.28125 1.625 -3.316406 1.625 -3.359375 C 1.625 -3.390625 1.609375 -3.414062 1.578125 -3.4375 C 1.546875 -3.46875 1.5 -3.484375 1.4375 -3.484375 C 1.351562 -3.484375 1.242188 -3.457031 1.109375 -3.40625 L 1.078125 -3.796875 C 1.253906 -3.847656 1.441406 -3.875 1.640625 -3.875 C 1.847656 -3.875 2 -3.835938 2.09375 -3.765625 C 2.195312 -3.691406 2.25 -3.59375 2.25 -3.46875 C 2.25 -3.375 2.226562 -3.296875 2.1875 -3.234375 C 2.15625 -3.179688 2.109375 -3.125 2.046875 -3.0625 C 1.992188 -3.007812 1.953125 -2.960938 1.921875 -2.921875 C 1.898438 -2.878906 1.890625 -2.828125 1.890625 -2.765625 L 1.890625 -2.6875 Z M 1.328125 -2.6875 "/></g></g></g><g fill="#000000" fill-opacity="1"><g transform="translate(62.546157, 34.052819)"><g><path d="M 1.4375 0.03125 C 1.175781 0.03125 0.945312 -0.015625 0.75 -0.109375 C 0.550781 -0.210938 0.394531 -0.351562 0.28125 -0.53125 C 0.164062 -0.707031 0.109375 -0.914062 0.109375 -1.15625 C 0.109375 -1.382812 0.164062 -1.585938 0.28125 -1.765625 C 0.394531 -1.953125 0.550781 -2.09375 0.75 -2.1875 C 0.957031 -2.28125 1.1875 -2.328125 1.4375 -2.328125 C 1.695312 -2.328125 1.925781 -2.273438 2.125 -2.171875 C 2.332031 -2.078125 2.488281 -1.941406 2.59375 -1.765625 C 2.707031 -1.585938 2.765625 -1.382812 2.765625 -1.15625 C 2.765625 -0.914062 2.707031 -0.707031 2.59375 -0.53125 C 2.488281 -0.351562 2.332031 -0.210938 2.125 -0.109375 C 1.925781 -0.015625 1.695312 0.03125 1.4375 0.03125 Z M 1.453125 -0.65625 C 1.578125 -0.65625 1.675781 -0.703125 1.75 -0.796875 C 1.832031 -0.890625 1.875 -1.007812 1.875 -1.15625 C 1.875 -1.300781 1.832031 -1.421875 1.75 -1.515625 C 1.675781 -1.609375 1.578125 -1.65625 1.453125 -1.65625 C 1.328125 -1.65625 1.222656 -1.609375 1.140625 -1.515625 C 1.054688 -1.421875 1.015625 -1.300781 1.015625 -1.15625 C 1.015625 -1.007812 1.054688 -0.890625 1.140625 -0.796875 C 1.222656 -0.703125 1.328125 -0.65625 1.453125 -0.65625 Z M 1.453125 -0.65625 "/></g></g></g><g fill="#000000" fill-opacity="1"><g transform="translate(65.426966, 34.052819)"><g/></g></g><g fill="#000000" fill-opacity="1"><g transform="translate(66.286156, 34.052819)"><g><path d="M 0.296875 -3.15625 L 1.296875 -3.15625 L 1.296875 -0.703125 L 2.390625 -0.703125 L 2.390625 0 L 0.296875 0 Z M 0.296875 -3.15625 "/></g></g></g><g fill="#000000" fill-opacity="1"><g transform="translate(68.758045, 34.052819)"><g><path d="M 1.25 0.03125 C 1.050781 0.03125 0.863281 -0.0195312 0.6875 -0.125 C 0.507812 -0.226562 0.367188 -0.367188 0.265625 -0.546875 C 0.160156 -0.734375 0.109375 -0.9375 0.109375 -1.15625 C 0.109375 -1.382812 0.160156 -1.585938 0.265625 -1.765625 C 0.367188 -1.941406 0.507812 -2.078125 0.6875 -2.171875 C 0.863281 -2.273438 1.050781 -2.328125 1.25 -2.328125 C 1.40625 -2.328125 1.550781 -2.28125 1.6875 -2.1875 C 1.820312 -2.101562 1.925781 -1.972656 2 -1.796875 L 2 -2.328125 L 2.96875 -2.328125 L 2.96875 0 L 2 0 L 2 -0.421875 C 1.84375 -0.117188 1.59375 0.03125 1.25 0.03125 Z M 1.546875 -0.6875 C 1.671875 -0.6875 1.773438 -0.726562 1.859375 -0.8125 C 1.941406 -0.90625 1.988281 -1.007812 2 -1.125 L 2 -1.171875 C 1.988281 -1.285156 1.9375 -1.382812 1.84375 -1.46875 C 1.757812 -1.5625 1.660156 -1.609375 1.546875 -1.609375 C 1.410156 -1.609375 1.296875 -1.5625 1.203125 -1.46875 C 1.117188 -1.382812 1.078125 -1.28125 1.078125 -1.15625 C 1.078125 -1.019531 1.125 -0.90625 1.21875 -0.8125 C 1.3125 -0.726562 1.421875 -0.6875 1.546875 -0.6875 Z M 1.546875 -0.6875 "/></g></g></g><g fill="#000000" fill-opacity="1"><g transform="translate(71.95588, 34.052819)"><g><path d="M 0.234375 -2.265625 L 1.15625 -2.265625 L 1.15625 -1.796875 C 1.257812 -1.984375 1.375 -2.117188 1.5 -2.203125 C 1.632812 -2.285156 1.796875 -2.328125 1.984375 -2.328125 C 2.160156 -2.328125 2.316406 -2.28125 2.453125 -2.1875 C 2.585938 -2.101562 2.6875 -1.984375 2.75 -1.828125 C 2.945312 -2.160156 3.234375 -2.328125 3.609375 -2.328125 C 3.785156 -2.328125 3.941406 -2.28125 4.078125 -2.1875 C 4.210938 -2.09375 4.316406 -1.957031 4.390625 -1.78125 C 4.460938 -1.601562 4.5 -1.394531 4.5 -1.15625 L 4.5 0 L 3.53125 0 L 3.53125 -1.15625 C 3.53125 -1.300781 3.503906 -1.414062 3.453125 -1.5 C 3.398438 -1.582031 3.320312 -1.625 3.21875 -1.625 C 3.113281 -1.625 3.023438 -1.578125 2.953125 -1.484375 C 2.878906 -1.398438 2.84375 -1.296875 2.84375 -1.171875 L 2.84375 0 L 1.890625 0 L 1.890625 -1.15625 C 1.890625 -1.300781 1.859375 -1.414062 1.796875 -1.5 C 1.742188 -1.582031 1.671875 -1.625 1.578125 -1.625 C 1.472656 -1.625 1.382812 -1.578125 1.3125 -1.484375 C 1.238281 -1.398438 1.203125 -1.296875 1.203125 -1.171875 L 1.203125 0 L 0.234375 0 Z M 0.234375 -2.265625 "/></g></g></g></svg>